<svg width="501" height="95" viewBox="0 0 501 95" fill="none" xmlns="http://www.w3.org/2000/svg">
<path d="M9.375 54.9082C11.8132 54.9082 13.8682 55.7616 15.54 57.4683C17.2467 59.175 18.1001 61.23 18.1001 63.6333C18.1001 66.0366 17.2467 68.0916 15.54 69.7983C13.8333 71.4702 11.7783 72.3062 9.375 72.3062C6.97168 72.3062 4.91667 71.4702 3.20996 69.7983C1.53809 68.0916 0.702148 66.0366 0.702148 63.6333C0.702148 61.23 1.53809 59.175 3.20996 57.4683C4.91667 55.7616 6.97168 54.9082 9.375 54.9082ZM45.7383 4.28174V22.1499H57.3369V27.3223H45.7383V57.4683C45.7383 60.2896 45.8602 62.1182 46.104 62.9541C46.3826 63.7552 46.8529 64.417 47.5146 64.9395C48.1764 65.4271 48.786 65.6709 49.3433 65.6709C51.6073 65.6709 53.7493 63.9468 55.7695 60.4985L57.3369 61.6479C54.5156 68.3354 49.9354 71.6792 43.5962 71.6792C40.4963 71.6792 37.8665 70.8258 35.707 69.1191C33.5824 67.3776 32.224 65.4445 31.6318 63.3198C31.2835 62.1356 31.1094 58.9312 31.1094 53.7065V27.3223H24.7354V25.4937C29.124 22.3937 32.8509 19.137 35.916 15.7236C39.016 12.3102 41.7153 8.49626 44.0142 4.28174H45.7383ZM85.0273 20.687C89.2767 20.687 93.23 21.7842 96.8872 23.9785C100.544 26.1729 103.313 29.2902 105.194 33.3306C107.11 37.3709 108.068 41.7944 108.068 46.6011C108.068 53.5324 106.309 59.3317 102.791 63.999C98.5417 69.6416 92.6727 72.4629 85.1841 72.4629C77.8348 72.4629 72.1748 69.8854 68.2041 64.7305C64.2334 59.5755 62.248 53.6021 62.248 46.8101C62.248 39.8091 64.2682 33.7137 68.3086 28.5239C72.3838 23.2993 77.9567 20.687 85.0273 20.687ZM85.2363 24.3965C83.46 24.3965 81.9274 25.0757 80.6387 26.4341C79.3848 27.7576 78.5488 30.4048 78.1309 34.3755C77.7477 38.3114 77.5562 43.7972 77.5562 50.833C77.5562 54.5599 77.8 58.043 78.2876 61.2822C78.6707 63.7552 79.4893 65.6361 80.7432 66.9248C81.9971 68.2135 83.4251 68.8579 85.0273 68.8579C86.5947 68.8579 87.9009 68.4225 88.9458 67.5518C90.3042 66.3675 91.2098 64.7131 91.6626 62.5884C92.3592 59.2795 92.7075 52.592 92.7075 42.5259C92.7075 36.6047 92.3766 32.5469 91.7148 30.3525C91.0531 28.1234 90.0778 26.5037 88.7891 25.4937C87.8835 24.7622 86.6992 24.3965 85.2363 24.3965ZM162.979 0.154297V56.3711C162.979 60.1676 163.083 62.4142 163.292 63.1108C163.571 64.2603 164.093 65.1136 164.859 65.6709C165.66 66.2282 167.036 66.5765 168.987 66.7158V68.4399L148.35 72.4629V64.7305C145.877 67.7259 143.665 69.7635 141.714 70.8433C139.799 71.923 137.622 72.4629 135.184 72.4629C128.949 72.4629 124.02 69.6764 120.398 64.1035C117.472 59.5755 116.009 54.02 116.009 47.437C116.009 42.1776 116.915 37.4754 118.726 33.3306C120.537 29.1509 123.01 25.9987 126.145 23.874C129.315 21.7493 132.711 20.687 136.333 20.687C138.667 20.687 140.739 21.1398 142.55 22.0454C144.361 22.951 146.295 24.5358 148.35 26.7998V12.0664C148.35 8.33952 148.193 6.09294 147.879 5.32666C147.461 4.31657 146.834 3.56771 145.999 3.08008C145.163 2.59245 143.595 2.34863 141.296 2.34863V0.154297H162.979ZM148.35 33.2783C145.772 28.3324 142.62 25.8594 138.893 25.8594C137.604 25.8594 136.542 26.2077 135.706 26.9043C134.417 27.984 133.355 29.8823 132.519 32.5991C131.718 35.3159 131.317 39.4782 131.317 45.0859C131.317 51.251 131.77 55.8138 132.676 58.7744C133.581 61.735 134.818 63.8771 136.385 65.2007C137.186 65.8625 138.284 66.1934 139.677 66.1934C142.742 66.1934 145.633 63.79 148.35 58.9834V33.2783ZM202.006 63.79C196.05 69.0495 190.704 71.6792 185.967 71.6792C183.18 71.6792 180.864 70.7736 179.018 68.9624C177.172 67.1164 176.249 64.8175 176.249 62.0659C176.249 58.339 177.851 54.9953 181.056 52.0347C184.26 49.0392 191.244 45.0685 202.006 40.1226V35.2114C202.006 31.5194 201.797 29.2031 201.379 28.2627C200.996 27.2874 200.247 26.4515 199.133 25.7549C198.018 25.0234 196.764 24.6577 195.371 24.6577C193.107 24.6577 191.244 25.1628 189.781 26.1729C188.875 26.7998 188.422 27.5312 188.422 28.3672C188.422 29.0986 188.91 30.0042 189.885 31.084C191.209 32.5817 191.871 34.0272 191.871 35.4204C191.871 37.1271 191.226 38.59 189.938 39.8091C188.684 40.9933 187.029 41.5854 184.974 41.5854C182.78 41.5854 180.934 40.9237 179.436 39.6001C177.973 38.2765 177.242 36.7266 177.242 34.9502C177.242 32.4424 178.234 30.0565 180.22 27.7925C182.205 25.4937 184.974 23.7347 188.527 22.5156C192.08 21.2965 195.772 20.687 199.603 20.687C204.236 20.687 207.893 21.6797 210.575 23.665C213.292 25.6156 215.05 27.7402 215.852 30.0391C216.339 31.502 216.583 34.8631 216.583 40.1226V59.0879C216.583 61.3171 216.67 62.7277 216.844 63.3198C217.018 63.8771 217.28 64.2951 217.628 64.5737C217.976 64.8524 218.377 64.9917 218.83 64.9917C219.735 64.9917 220.658 64.3473 221.599 63.0586L223.166 64.3125C221.424 66.89 219.613 68.7708 217.732 69.9551C215.886 71.1045 213.779 71.6792 211.411 71.6792C208.624 71.6792 206.447 71.0348 204.88 69.7461C203.312 68.4225 202.355 66.4372 202.006 63.79ZM202.006 59.9761V43.623C197.792 46.096 194.657 48.7432 192.602 51.5645C191.244 53.4453 190.564 55.3436 190.564 57.2593C190.564 58.8615 191.139 60.2721 192.289 61.4912C193.159 62.4316 194.378 62.9019 195.946 62.9019C197.687 62.9019 199.708 61.9266 202.006 59.9761ZM250.961 72.9854L235.183 36.7788C232.814 31.3104 231.055 27.9492 229.906 26.6953C228.791 25.4414 227.433 24.5706 225.831 24.083V22.1499H251.797V24.083C250.09 24.1527 248.889 24.4836 248.192 25.0757C247.495 25.6678 247.147 26.3818 247.147 27.2178C247.147 28.5413 248.018 31.1536 249.759 35.0547L258.119 54.1768L263.813 39.3911C265.868 34.1317 266.896 30.4744 266.896 28.4194C266.896 27.1307 266.461 26.1032 265.59 25.3369C264.754 24.5706 263.256 24.1527 261.097 24.083V22.1499H277.45V24.083C275.847 24.2572 274.541 24.8841 273.531 25.9639C272.521 27.0088 270.832 30.6138 268.463 36.7788L254.514 72.9854C250.996 82.0413 248.383 87.6143 246.677 89.7041C244.273 92.6299 241.261 94.0928 237.638 94.0928C234.747 94.0928 232.396 93.2568 230.585 91.585C228.809 89.9479 227.92 87.9626 227.92 85.6289C227.92 83.6087 228.53 81.9368 229.749 80.6133C231.003 79.2897 232.535 78.6279 234.347 78.6279C236.088 78.6279 237.481 79.1852 238.526 80.2998C239.606 81.4144 240.163 83.1385 240.198 85.4722C240.233 86.7957 240.39 87.6491 240.668 88.0322C240.947 88.4154 241.348 88.6069 241.87 88.6069C242.706 88.6069 243.594 88.1019 244.535 87.0918C245.928 85.6289 247.565 82.2852 249.446 77.0605L250.961 72.9854ZM302.005 22.1499V28.4717C304.513 25.7549 306.917 23.7869 309.215 22.5679C311.514 21.314 313.987 20.687 316.634 20.687C319.804 20.687 322.434 21.5752 324.523 23.3516C326.613 25.0931 328.007 27.27 328.703 29.8823C329.26 31.8677 329.539 35.6816 329.539 41.3242V60.3418C329.539 64.1035 329.87 66.4546 330.532 67.395C331.228 68.3006 332.656 68.8753 334.816 69.1191V71H310.104V69.1191C311.95 68.8753 313.273 68.109 314.074 66.8203C314.632 65.9495 314.91 63.79 314.91 60.3418V38.6074C314.91 34.6019 314.753 32.0767 314.44 31.0317C314.126 29.9868 313.587 29.1857 312.82 28.6284C312.089 28.0363 311.27 27.7402 310.365 27.7402C307.369 27.7402 304.583 29.8823 302.005 34.1665V60.3418C302.005 63.999 302.336 66.3153 302.998 67.2905C303.695 68.2658 304.966 68.8753 306.812 69.1191V71H282.1V69.1191C284.155 68.9102 285.618 68.2484 286.488 67.1338C287.08 66.3675 287.376 64.1035 287.376 60.3418V32.7559C287.376 29.0638 287.028 26.765 286.332 25.8594C285.67 24.9538 284.259 24.3617 282.1 24.083V22.1499H302.005ZM382.987 44.8247H356.185C356.498 51.3032 358.222 56.4233 361.357 60.1851C363.76 63.076 366.651 64.5215 370.03 64.5215C372.12 64.5215 374.018 63.9468 375.725 62.7974C377.431 61.6131 379.26 59.5059 381.21 56.4756L382.987 57.625C380.34 63.0238 377.414 66.8551 374.209 69.1191C371.005 71.3483 367.296 72.4629 363.081 72.4629C355.836 72.4629 350.35 69.6764 346.624 64.1035C343.628 59.6104 342.13 54.0374 342.13 47.3848C342.13 39.2344 344.325 32.7559 348.713 27.9492C353.137 23.1077 358.309 20.687 364.23 20.687C369.176 20.687 373.461 22.7246 377.083 26.7998C380.74 30.8402 382.708 36.8485 382.987 44.8247ZM370.134 41.3242C370.134 35.7165 369.821 31.8677 369.194 29.7778C368.602 27.688 367.661 26.1032 366.373 25.0234C365.641 24.3965 364.666 24.083 363.447 24.083C361.636 24.083 360.155 24.9712 359.006 26.7476C356.951 29.8475 355.923 34.0968 355.923 39.4956V41.3242H370.134ZM437.584 72.4629L424.209 36.6221L411.095 72.4629H408.378L395.369 37.04C393.419 31.6413 391.764 28.1234 390.406 26.4863C389.535 25.3717 388.211 24.5706 386.435 24.083V22.1499H411.095V24.083C409.423 24.083 408.274 24.3268 407.647 24.8145C407.02 25.3021 406.707 25.8594 406.707 26.4863C406.707 27.0785 407.264 28.8548 408.378 31.8154L415.536 50.8853L422.433 31.8154L421.91 30.5615C420.865 27.9492 419.942 26.2948 419.141 25.5981C418.375 24.8667 417.173 24.3617 415.536 24.083V22.1499H440.562V24.083C438.611 24.1875 437.375 24.4661 436.853 24.9189C436.33 25.3369 436.069 25.9465 436.069 26.7476C436.069 27.5138 436.574 29.2031 437.584 31.8154L444.48 50.8853L450.75 33.3306C451.656 30.8228 452.108 29.116 452.108 28.2104C452.108 26.8521 451.778 25.8594 451.116 25.2324C450.454 24.6055 449.165 24.2223 447.25 24.083V22.1499H461.722V24.083C460.119 24.292 458.848 24.8667 457.908 25.8071C456.967 26.7127 455.748 29.325 454.25 33.644L440.562 72.4629H437.584ZM497.354 20.7915L498.137 37.458H496.361C494.236 32.512 492.024 29.1335 489.726 27.3223C487.462 25.5111 485.198 24.6055 482.934 24.6055C481.506 24.6055 480.286 25.0931 479.276 26.0684C478.266 27.0088 477.761 28.106 477.761 29.3599C477.761 30.3003 478.11 31.2059 478.806 32.0767C479.921 33.5047 483.038 35.9603 488.158 39.4434C493.278 42.8916 496.639 45.8348 498.242 48.2729C499.879 50.6763 500.697 53.3757 500.697 56.3711C500.697 59.0879 500.018 61.7524 498.66 64.3647C497.301 66.9771 495.386 68.9798 492.913 70.373C490.44 71.7663 487.705 72.4629 484.71 72.4629C482.376 72.4629 479.259 71.7314 475.358 70.2686C474.313 69.8854 473.599 69.6938 473.216 69.6938C472.066 69.6938 471.109 70.5646 470.342 72.3062H468.618L467.782 54.7515H469.559C471.126 59.3491 473.268 62.7974 475.985 65.0962C478.736 67.395 481.331 68.5444 483.77 68.5444C485.441 68.5444 486.8 68.0394 487.845 67.0293C488.924 65.9844 489.464 64.7305 489.464 63.2676C489.464 61.5957 488.942 60.1502 487.897 58.9312C486.852 57.7121 484.518 55.866 480.896 53.3931C475.567 49.701 472.119 46.8797 470.551 44.9292C468.252 42.0731 467.103 38.9209 467.103 35.4727C467.103 31.7109 468.392 28.3149 470.969 25.2847C473.582 22.2196 477.343 20.687 482.254 20.687C484.902 20.687 487.462 21.3314 489.935 22.6201C490.875 23.1426 491.641 23.4038 492.233 23.4038C492.86 23.4038 493.365 23.2819 493.749 23.0381C494.132 22.7594 494.741 22.0106 495.577 20.7915H497.354Z" fill="#303144"/>
</svg>
